<?xml version="1.0" encoding="utf-8"?>
<svg viewBox="0 0 500 500" width="500" height="500" xmlns="http://www.w3.org/2000/svg">
  <defs>
    <linearGradient id="gradient-6" gradientUnits="userSpaceOnUse" x1="342.639" y1="318.911" x2="342.639" y2="433.971" gradientTransform="matrix(-0.145142, 0.989411, -0.461663, -0.1768, 546.99987, 89.816862)">
      <stop offset="0" style="stop-color: rgba(184, 43, 146, 1)"/>
      <stop offset="1" style="stop-color: rgb(113, 36, 52);"/>
    </linearGradient>
    <linearGradient id="gradient-5" gradientUnits="userSpaceOnUse" x1="335.738" y1="320.532" x2="335.738" y2="439.017" gradientTransform="matrix(1, 0, 0, 1, 2, 1)">
      <stop offset="0" style="stop-color: rgba(184, 43, 146, 1)"/>
      <stop offset="1" style="stop-color: rgba(101, 24, 81, 1)"/>
    </linearGradient>
    <linearGradient id="gradient-7" gradientUnits="userSpaceOnUse" x1="167.889" y1="139.932" x2="167.889" y2="189.105" gradientTransform="matrix(-0.850123, -0.526584, 0.481833, -0.723015, 227.375617, 385.706881)">
      <stop offset="0" style="stop-color: rgba(184, 43, 146, 1)"/>
      <stop offset="1" style="stop-color: rgb(122, 37, 64);"/>
    </linearGradient>
    <linearGradient id="gradient-0" gradientUnits="userSpaceOnUse" x1="279.065" y1="50.6" x2="279.065" y2="320.449" gradientTransform="matrix(0.997865, 0.065312, -0.017361, 0.178281, 6.159185, 245.092632)">
      <stop offset="0" style="stop-color: rgb(184, 43, 147);"/>
      <stop offset="1" style="stop-color: rgba(100, 35, 35, 1)"/>
    </linearGradient>
    <linearGradient id="gradient-3" gradientUnits="userSpaceOnUse" x1="242.966" y1="383.279" x2="242.966" y2="439.045" gradientTransform="matrix(1, 0, 0, 1, -1, 3)">
      <stop offset="0" style="stop-color: rgb(122, 37, 64);"/>
      <stop offset="1" style="stop-color: rgb(184, 43, 147);"/>
    </linearGradient>
  </defs>
  <rect width="499.384" height="500" style="fill: rgb(240, 222, 238);" x="-2.384"/>
  <path style="stroke: url(#gradient-5); fill: url(#gradient-6);" d="M 313.258 318.911 L 371.15 372.444 L 372.019 433.971 L 313.259 386.279 L 313.258 318.911 Z"/>
  <path style="stroke: rgb(0, 0, 0); fill: url(#gradient-7);" d="M 149.57 169.6 L 183.711 188.987 L 183.71 145.583 C 171.147 154.387 162.042 160.845 149.57 169.6 Z"/>
  <path style="stroke: rgb(0, 0, 0); fill: url(#gradient-0);" d="M 310.272 93.495 L 251.436 48.962 L 251.452 317.589 L 312.385 317.441 L 310.272 93.495 Z"/>
  <path style="stroke: rgb(0, 0, 0); fill: url(#gradient-3);" d="M 123.846 386.279 L 185.575 434.518 L 371.15 434.518 L 312.571 386.875 L 123.846 386.279 Z"/>
  <path style="fill: rgb(58, 173, 179); stroke: rgb(52, 85, 155); stroke-width: 5px;" d="M 124.846 125.897 C 142.339 123.517 192.786 73.456 186.654 50.464 C 186.65 50.45 248.463 50.458 248.463 50.458 L 248.463 320.576 L 310.272 320.444 L 310.272 383.894 L 124.846 383.3 L 124.846 320.582 L 186.654 320.582 L 186.654 139.885 L 149.266 166.154 L 124.846 125.897 Z"/>
  <path style="fill: rgb(216, 216, 216); stroke: rgb(0, 0, 0);"/>
  <path style="fill: rgb(216, 216, 216); stroke: rgb(0, 0, 0);"/>
  <path style="stroke-width: 0px; stroke: rgb(80, 73, 73); fill: rgb(192, 190, 190);" d="M 310.272 93.111 L 371.15 93.111 L 371.15 372.444 L 312.884 317.991 L 310.272 93.111 Z"/>
  <path style="stroke: rgb(0, 0, 0); stroke-width: 0px; fill: rgb(192, 190, 190);" d="M 371.15 372.444 L 445.38 372.444 L 445.38 434.518 L 372.019 434.518 L 371.15 372.444 Z"/>
</svg>